# xmcd CD Database Entry
#
# Track frame offsets:
# 150
# 12482
# 25112
# 39292
# 62695
# 80702
# 95057
# 120732
# 133652
# 148320
# 168045
# 181355
#
# Disc length: 2750 seconds
#
# Revision: 1
# Processed by: cddbd v1.4PL0 Copyright (c) Steve Scherf et al.
# Submitted via: tcd 2.0b
#
DISCID=a20abc0c
DTITLE=BENNY GOODMAN SEXTETT
DYEAR=1900
DGENRE=
TTITLE0=LULLABY OF THE LEAVES
TTITLE1=TEMTATION RAG
TTITLE2=HOW AM I TO KNOW?
TTITLE3=BETWEEN THE DEVIL AND THE DEEP BLUE SEA
TTITLE4=I'LL NEVER BE THE SAME
TTITLE5=FASEWELL BLUES
TTITLE6=UNDECIDED
TTITLE7=I'VE GOT A FEELING I'M FALLING
TTITLE8=EAST OF THE SUN
TTITLE9=FOUR OR FIVE TIMES
TTITLE10=UNDER A BLANKET OF BLUE
TTITLE11=BYE BYE BLUES
EXTD=
EXTT0=
EXTT1=
EXTT2=
EXTT3=
EXTT4=
EXTT5=
EXTT6=
EXTT7=
EXTT8=
EXTT9=
EXTT10=
EXTT11=
PLAYORDER=
